<svg width="536" height="952" viewBox="0 0 536 952" fill="none" xmlns="http://www.w3.org/2000/svg">
<path d="M507.997 29.0001C517.997 24.5 530.497 11 528.997 7.00011C527.241 2.31856 515.497 7.50011 509.997 30.5001C512.83 20.6667 516.797 1 509.997 1C501.497 1 505.497 20 512.997 31C439.497 30.3333 260.798 48.8 133.998 128C-24.5022 227 5.99778 435 124.498 495.5C242.998 556 521.998 585.5 534.498 638C546.998 690.5 374.283 704.934 233.498 721C67 740 -87.5031 784.5 59.9977 859.5C128.496 892.5 243.123 922.5 260.623 948C269.497 942.5 274.243 942.254 282.496 934C289.496 927 280.496 910.5 258.996 951C264.33 940.5 273.396 918.7 264.996 919.5C254.496 920.5 260.623 943 260.623 951" stroke="#845EF7" stroke-linecap="round"/>
</svg>
