<svg width="87" height="100" viewBox="0 0 87 100" fill="none" xmlns="http://www.w3.org/2000/svg">
<path d="M43.5701 74L22.7861 86V62L43.5701 50V74Z" fill="#76DDFD"/>
<path d="M43.5701 74L22.7861 86V62L43.5701 50V74Z" stroke="black" stroke-width="3" stroke-linecap="round" stroke-linejoin="round"/>
<path d="M22.785 86L2.00098 74V50L22.785 62V86Z" fill="#76DDFD"/>
<path d="M22.785 86L2.00098 74V50L22.785 62V86Z" stroke="black" stroke-width="3" stroke-linecap="round" stroke-linejoin="round"/>
<path d="M22.785 62L2 50L22.785 38L43.57 50L22.785 62Z" fill="#76DDFD"/>
<path d="M22.785 62L2 50L22.785 38L43.57 50L22.785 62Z" stroke="black" stroke-width="3" stroke-linecap="round" stroke-linejoin="round"/>
<path d="M64.3538 38L43.5698 50V26L64.3538 14V38Z" fill="#76DDFD"/>
<path d="M64.3538 38L43.5698 50V26L64.3538 14V38Z" stroke="black" stroke-width="3" stroke-linecap="round" stroke-linejoin="round"/>
<path d="M43.5699 50L22.7859 38V14L43.5699 26V50Z" fill="#76DDFD"/>
<path d="M43.5699 50L22.7859 38V14L43.5699 26V50Z" stroke="black" stroke-width="3" stroke-linecap="round" stroke-linejoin="round"/>
<path d="M43.5699 26L22.7849 14L43.5699 2L64.3549 14L43.5699 26Z" fill="#76DDFD"/>
<path d="M43.5699 26L22.7849 14L43.5699 2L64.3549 14L43.5699 26Z" stroke="black" stroke-width="3" stroke-linecap="round" stroke-linejoin="round"/>
<path d="M43.5701 50L22.7861 62V38L43.5701 26V50Z" fill="#76DDFD"/>
<path d="M43.5701 50L22.7861 62V38L43.5701 26V50Z" stroke="black" stroke-width="3" stroke-linecap="round" stroke-linejoin="round"/>
<path d="M22.785 62L2.00098 50V26L22.785 38V62Z" fill="#76DDFD"/>
<path d="M22.785 62L2.00098 50V26L22.785 38V62Z" stroke="black" stroke-width="3" stroke-linecap="round" stroke-linejoin="round"/>
<path d="M22.785 38L2 26L22.785 14L43.57 26L22.785 38Z" fill="#76DDFD"/>
<path d="M22.785 38L2 26L22.785 14L43.57 26L22.785 38Z" stroke="black" stroke-width="3" stroke-linecap="round" stroke-linejoin="round"/>
<path d="M85.139 74L64.355 86V62L85.139 50V74Z" fill="#76DDFD"/>
<path d="M85.139 74L64.355 86V62L85.139 50V74Z" stroke="black" stroke-width="3" stroke-linecap="round" stroke-linejoin="round"/>
<path d="M64.3541 86L43.5701 74V50L64.3541 62V86Z" fill="#76DDFD"/>
<path d="M64.3541 86L43.5701 74V50L64.3541 62V86Z" stroke="black" stroke-width="3" stroke-linecap="round" stroke-linejoin="round"/>
<path d="M64.3551 62L43.5701 50L64.3551 38L85.1401 50L64.3551 62Z" fill="#76DDFD"/>
<path d="M64.3551 62L43.5701 50L64.3551 38L85.1401 50L64.3551 62Z" stroke="black" stroke-width="3" stroke-linecap="round" stroke-linejoin="round"/>
<path d="M43.5699 74L22.7849 62L43.5699 50L64.3549 62L43.5699 74Z" fill="#FE85CE"/>
<path d="M43.5699 74L22.7849 62L43.5699 50L64.3549 62L43.5699 74Z" stroke="black" stroke-width="3" stroke-linecap="round" stroke-linejoin="round"/>
<path d="M64.3538 86L43.5698 98V74L64.3538 62V86Z" fill="#FE85CE"/>
<path d="M64.3538 86L43.5698 98V74L64.3538 62V86Z" stroke="black" stroke-width="3" stroke-linecap="round" stroke-linejoin="round"/>
<path d="M43.5699 98L22.7859 86V62L43.5699 74V98Z" fill="#FE85CE"/>
<path d="M43.5699 98L22.7859 86V62L43.5699 74V98Z" stroke="black" stroke-width="3" stroke-linecap="round" stroke-linejoin="round"/>
<path d="M85.139 50L64.355 62V38L85.139 26V50Z" fill="#76DDFD"/>
<path d="M85.139 50L64.355 62V38L85.139 26V50Z" stroke="black" stroke-width="3" stroke-linecap="round" stroke-linejoin="round"/>
<path d="M64.3541 62L43.5701 50V26L64.3541 38V62Z" fill="#76DDFD"/>
<path d="M64.3541 62L43.5701 50V26L64.3541 38V62Z" stroke="black" stroke-width="3" stroke-linecap="round" stroke-linejoin="round"/>
<path d="M64.3551 38L43.5701 26L64.3551 14L85.1401 26L64.3551 38Z" fill="#76DDFD"/>
<path d="M64.3551 38L43.5701 26L64.3551 14L85.1401 26L64.3551 38Z" stroke="black" stroke-width="3" stroke-linecap="round" stroke-linejoin="round"/>
<path d="M64.3538 62L43.5698 74V50L64.3538 38V62Z" fill="#76DDFD"/>
<path d="M64.3538 62L43.5698 74V50L64.3538 38V62Z" stroke="black" stroke-width="3" stroke-linecap="round" stroke-linejoin="round"/>
<path d="M43.5699 74L22.7859 62V38L43.5699 50V74Z" fill="#76DDFD"/>
<path d="M43.5699 74L22.7859 62V38L43.5699 50V74Z" stroke="black" stroke-width="3" stroke-linecap="round" stroke-linejoin="round"/>
<path d="M43.5699 50L22.7849 38L43.5699 26L64.3549 38L43.5699 50Z" fill="#76DDFD"/>
<path d="M43.5699 50L22.7849 38L43.5699 26L64.3549 38L43.5699 50Z" stroke="black" stroke-width="3" stroke-linecap="round" stroke-linejoin="round"/>
</svg>
